<svg width="14" height="14" viewBox="0 0 14 14" fill="none" xmlns="http://www.w3.org/2000/svg">
<path d="M8.05794 6.99999L12.7829 2.28249C12.9242 2.14126 13.0035 1.94971 13.0035 1.74999C13.0035 1.55026 12.9242 1.35871 12.7829 1.21749C12.6417 1.07626 12.4502 0.996918 12.2504 0.996918C12.0507 0.996918 11.8592 1.07626 11.7179 1.21749L7.00044 5.94249L2.28294 1.21749C2.14171 1.07626 1.95017 0.996918 1.75044 0.996918C1.55072 0.996918 1.35917 1.07626 1.21794 1.21749C1.07671 1.35871 0.997374 1.55026 0.997374 1.74999C0.997374 1.94971 1.07671 2.14126 1.21794 2.28249L5.94294 6.99999L1.21794 11.7175C1.14765 11.7872 1.09185 11.8702 1.05377 11.9616C1.0157 12.0529 0.996094 12.151 0.996094 12.25C0.996094 12.349 1.0157 12.447 1.05377 12.5384C1.09185 12.6298 1.14765 12.7128 1.21794 12.7825C1.28766 12.8528 1.37062 12.9086 1.46201 12.9467C1.5534 12.9847 1.65143 13.0043 1.75044 13.0043C1.84945 13.0043 1.94748 12.9847 2.03888 12.9467C2.13027 12.9086 2.21322 12.8528 2.28294 12.7825L7.00044 8.05749L11.7179 12.7825C11.7877 12.8528 11.8706 12.9086 11.962 12.9467C12.0534 12.9847 12.1514 13.0043 12.2504 13.0043C12.3495 13.0043 12.4475 12.9847 12.5389 12.9467C12.6303 12.9086 12.7132 12.8528 12.7829 12.7825C12.8532 12.7128 12.909 12.6298 12.9471 12.5384C12.9852 12.447 13.0048 12.349 13.0048 12.25C13.0048 12.151 12.9852 12.0529 12.9471 11.9616C12.909 11.8702 12.8532 11.7872 12.7829 11.7175L8.05794 6.99999Z" fill="black"/>
</svg>
