<svg width="12" height="14" viewBox="0 0 12 14" fill="none" xmlns="http://www.w3.org/2000/svg">
<path d="M11.6399 5.42001C11.5463 4.44596 11.2021 3.51273 10.6407 2.71122C10.0793 1.90971 9.31998 1.26723 8.43658 0.846341C7.55318 0.42545 6.57584 0.240493 5.59973 0.309482C4.62362 0.37847 3.68201 0.699053 2.86659 1.24001C2.16605 1.70844 1.57796 2.32621 1.14455 3.04894C0.711143 3.77167 0.443184 4.58142 0.359921 5.42001C0.278242 6.25312 0.383037 7.09396 0.666701 7.88153C0.950365 8.6691 1.40578 9.38365 1.99992 9.97335L5.53325 13.5133C5.59523 13.5758 5.66896 13.6254 5.7502 13.6593C5.83144 13.6931 5.91858 13.7105 6.00659 13.7105C6.09459 13.7105 6.18173 13.6931 6.26297 13.6593C6.34421 13.6254 6.41794 13.5758 6.47992 13.5133L9.99992 9.97335C10.5941 9.38365 11.0495 8.6691 11.3331 7.88153C11.6168 7.09396 11.7216 6.25312 11.6399 5.42001ZM9.06659 9.03335L5.99992 12.1L2.93325 9.03335C2.48131 8.58138 2.13512 8.0349 1.91957 7.43319C1.70401 6.83147 1.62444 6.18948 1.68659 5.55335C1.74913 4.90742 1.95443 4.28345 2.28763 3.72657C2.62084 3.1697 3.07362 2.69382 3.61325 2.33335C4.32055 1.8635 5.15079 1.61288 5.99992 1.61288C6.84905 1.61288 7.67929 1.8635 8.38659 2.33335C8.92458 2.69242 9.37636 3.1662 9.70949 3.72064C10.0426 4.27508 10.2488 4.89641 10.3133 5.54001C10.3774 6.1783 10.2989 6.82286 10.0832 7.42705C9.86763 8.03123 9.52036 8.5799 9.06659 9.03335ZM5.99992 3.00001C5.40658 3.00001 4.82656 3.17596 4.33321 3.5056C3.83986 3.83525 3.45534 4.30378 3.22828 4.85196C3.00122 5.40014 2.94181 6.00334 3.05756 6.58528C3.17332 7.16723 3.45904 7.70178 3.8786 8.12133C4.29816 8.54089 4.83271 8.82661 5.41465 8.94237C5.99659 9.05813 6.59979 8.99872 7.14797 8.77165C7.69615 8.54459 8.16468 8.16007 8.49433 7.66672C8.82397 7.17338 8.99992 6.59336 8.99992 6.00001C8.99816 5.20491 8.68152 4.44287 8.11929 3.88064C7.55707 3.31841 6.79503 3.00177 5.99992 3.00001ZM5.99992 7.66668C5.67028 7.66668 5.34805 7.56893 5.07397 7.3858C4.79989 7.20266 4.58627 6.94236 4.46012 6.63782C4.33397 6.33328 4.30097 5.99816 4.36528 5.67486C4.42959 5.35156 4.58832 5.05459 4.82141 4.8215C5.0545 4.58841 5.35147 4.42968 5.67477 4.36537C5.99807 4.30106 6.33318 4.33407 6.63772 4.46021C6.94227 4.58636 7.20257 4.79998 7.3857 5.07406C7.56884 5.34815 7.66659 5.67038 7.66659 6.00001C7.66659 6.44204 7.49099 6.86596 7.17843 7.17852C6.86587 7.49109 6.44195 7.66668 5.99992 7.66668Z" fill="#757778"/>
</svg>
