<svg width="16" height="16" viewBox="0 0 16 16" fill="none" xmlns="http://www.w3.org/2000/svg">
<g clip-path="url(#clip0_175_550)">
<path d="M12.4507 16.1001C12.2437 16.1001 12.0387 16.0671 11.8407 16.0041L11.6697 15.9391C10.2937 15.4961 7.57471 14.0491 5.88371 12.7021C4.98171 11.9901 4.09871 11.1071 3.40071 10.2191C2.75671 9.41411 2.15471 8.50211 1.61071 7.51211C0.389706 5.30511 0.105705 4.29011 0.0937054 4.24811C-0.367295 2.81811 0.947705 1.46511 2.21571 0.748111L2.35971 0.683111C3.03871 0.381111 3.75671 0.538111 4.21171 1.08411C4.21171 1.08411 4.92771 1.94011 5.23371 2.36211C5.53571 2.77211 5.9317 3.42011 6.1237 3.75411C6.6057 4.61611 6.3077 5.50511 5.78471 5.90611L5.1137 6.44311C5.0037 6.53211 4.99671 6.76811 4.99971 6.80111C5.00771 6.80111 5.99771 10.2661 9.39971 11.1351C9.45171 11.1211 9.61071 11.0911 9.67871 11.0061L10.2227 10.3271C10.6557 9.76011 11.6237 9.58011 12.3637 9.99311C13.1017 10.4101 14.2477 11.1661 15.0567 11.9291C15.5887 12.3611 15.7347 13.0551 15.4287 13.7431V13.7621L15.3637 13.8881C15.0677 14.4071 13.9857 16.1001 12.4507 16.1001ZM12.2987 15.0881C13.0907 15.2131 13.9737 14.2791 14.4577 13.4551L14.4847 13.3991C14.6417 13.0981 14.6117 12.8561 14.3967 12.6811C13.7577 12.0791 12.7777 11.3761 11.8727 10.8661C11.5357 10.6771 11.1237 10.7961 11.0097 10.9451L10.4587 11.6331C10.1047 12.0751 9.55571 12.1231 9.3357 12.1231L9.2317 12.1191C5.1477 11.0811 4.06271 7.14111 4.01871 6.97411C3.99771 6.81011 3.9507 6.09611 4.4887 5.66411L5.1687 5.12011C5.3007 5.01911 5.49071 4.67011 5.25471 4.24811C5.03971 3.87311 4.67471 3.28911 4.42671 2.95311C4.13171 2.54611 3.44571 1.72811 3.44371 1.72611C3.25171 1.49511 3.0057 1.47011 2.7057 1.62711L2.60371 1.68011C1.84571 2.13511 0.763705 3.06611 1.05271 3.96411C1.06071 3.99311 1.33671 4.95111 2.48671 7.03011C3.00371 7.97111 3.57371 8.83511 4.18371 9.59911C4.83671 10.4311 5.66071 11.2531 6.50471 11.9201C8.29771 13.3481 11.0697 14.7381 12.1167 15.0311L12.2987 15.0881Z" fill="white"/>
<path d="M15.1926 7C14.9166 7 14.6926 6.776 14.6926 6.5C14.6926 3.467 12.2256 1 9.19263 1C8.91663 1 8.69263 0.776 8.69263 0.5C8.69263 0.224 8.91663 0 9.19263 0C12.7766 0 15.6926 2.916 15.6926 6.5C15.6926 6.776 15.4686 7 15.1926 7Z" fill="white"/>
<path d="M13.1926 7C12.9166 7 12.6926 6.776 12.6926 6.5C12.6926 4.57 11.1226 3 9.19263 3C8.91663 3 8.69263 2.776 8.69263 2.5C8.69263 2.224 8.91663 2 9.19263 2C11.6736 2 13.6926 4.019 13.6926 6.5C13.6926 6.776 13.4686 7 13.1926 7Z" fill="white"/>
<path d="M11.1926 7C10.9166 7 10.6926 6.776 10.6926 6.5C10.6926 5.673 10.0196 5 9.19263 5C8.91663 5 8.69263 4.776 8.69263 4.5C8.69263 4.224 8.91663 4 9.19263 4C10.5706 4 11.6926 5.122 11.6926 6.5C11.6926 6.776 11.4686 7 11.1926 7Z" fill="white"/>
</g>
<defs>
<clipPath id="clip0_175_550">
<rect width="16" height="16" fill="white" transform="translate(-0.000488281)"/>
</clipPath>
</defs>
</svg>
