<svg width="16" height="16" viewBox="0 0 16 16" fill="none" xmlns="http://www.w3.org/2000/svg">
<path d="M11.5594 3.63992C11.4012 3.63992 11.2465 3.68684 11.115 3.77474C10.9834 3.86265 10.8809 3.98759 10.8203 4.13377C10.7598 4.27995 10.7439 4.44081 10.7748 4.59599C10.8057 4.75118 10.8819 4.89372 10.9937 5.0056C11.1056 5.11749 11.2482 5.19368 11.4034 5.22455C11.5585 5.25541 11.7194 5.23957 11.8656 5.17902C12.0118 5.11847 12.1367 5.01593 12.2246 4.88437C12.3125 4.75282 12.3594 4.59814 12.3594 4.43992C12.3594 4.22775 12.2751 4.02426 12.1251 3.87423C11.9751 3.7242 11.7716 3.63992 11.5594 3.63992ZM14.6261 5.25325C14.6131 4.70012 14.5095 4.15285 14.3194 3.63325C14.1499 3.18867 13.8861 2.7861 13.5461 2.45325C13.216 2.11154 12.8125 1.84937 12.3661 1.68659C11.8479 1.49069 11.3 1.38473 10.7461 1.37325C10.0394 1.33325 9.81276 1.33325 7.99943 1.33325C6.1861 1.33325 5.95943 1.33325 5.25276 1.37325C4.69887 1.38473 4.15099 1.49069 3.63276 1.68659C3.18721 1.85102 2.78405 2.11296 2.45276 2.45325C2.11105 2.78337 1.84888 3.18688 1.6861 3.63325C1.4902 4.15148 1.38424 4.69935 1.37276 5.25325C1.33276 5.95992 1.33276 6.18658 1.33276 7.99992C1.33276 9.81325 1.33276 10.0399 1.37276 10.7466C1.38424 11.3005 1.4902 11.8484 1.6861 12.3666C1.84888 12.813 2.11105 13.2165 2.45276 13.5466C2.78405 13.8869 3.18721 14.1488 3.63276 14.3133C4.15099 14.5091 4.69887 14.6151 5.25276 14.6266C5.95943 14.6666 6.1861 14.6666 7.99943 14.6666C9.81276 14.6666 10.0394 14.6666 10.7461 14.6266C11.3 14.6151 11.8479 14.5091 12.3661 14.3133C12.8125 14.1505 13.216 13.8883 13.5461 13.5466C13.8876 13.215 14.1517 12.812 14.3194 12.3666C14.5095 11.847 14.6131 11.2997 14.6261 10.7466C14.6261 10.0399 14.6661 9.81325 14.6661 7.99992C14.6661 6.18658 14.6661 5.95992 14.6261 5.25325ZM13.4261 10.6666C13.4212 11.0898 13.3446 11.5091 13.1994 11.9066C13.093 12.1967 12.922 12.4589 12.6994 12.6733C12.4832 12.8936 12.2216 13.0642 11.9328 13.1733C11.5352 13.3184 11.1159 13.3951 10.6928 13.3999C10.0261 13.4333 9.77943 13.4399 8.0261 13.4399C6.27276 13.4399 6.0261 13.4399 5.35943 13.3999C4.92002 13.4081 4.48249 13.3405 4.0661 13.1999C3.78995 13.0853 3.54033 12.9151 3.33276 12.6999C3.11149 12.4858 2.94266 12.2234 2.83943 11.9333C2.67667 11.53 2.58639 11.1012 2.57276 10.6666C2.57276 9.99992 2.53276 9.75325 2.53276 7.99992C2.53276 6.24658 2.53276 5.99992 2.57276 5.33325C2.57575 4.90062 2.65473 4.47188 2.8061 4.06659C2.92346 3.78519 3.10361 3.53436 3.33276 3.33325C3.53531 3.10403 3.78562 2.92198 4.0661 2.79992C4.47246 2.65328 4.90076 2.57664 5.33276 2.57325C5.99943 2.57325 6.2461 2.53325 7.99943 2.53325C9.75276 2.53325 9.99943 2.53325 10.6661 2.57325C11.0893 2.57811 11.5086 2.65475 11.9061 2.79992C12.2091 2.91235 12.481 3.09515 12.6994 3.33325C12.9179 3.53804 13.0886 3.78841 13.1994 4.06659C13.3476 4.47254 13.4243 4.9011 13.4261 5.33325C13.4594 5.99992 13.4661 6.24658 13.4661 7.99992C13.4661 9.75325 13.4594 9.99992 13.4261 10.6666ZM7.99943 4.57992C7.3233 4.58124 6.66274 4.78294 6.1012 5.15953C5.53966 5.53613 5.10235 6.07072 4.84452 6.69575C4.58669 7.32079 4.51991 8.00823 4.65263 8.6712C4.78534 9.33418 5.11159 9.94294 5.59015 10.4206C6.06871 10.8982 6.6781 11.2233 7.34134 11.3547C8.00457 11.4861 8.69187 11.418 9.31641 11.1589C9.94094 10.8999 10.4747 10.4615 10.8502 9.89927C11.2257 9.337 11.4261 8.67605 11.4261 7.99992C11.427 7.54999 11.3389 7.10432 11.1669 6.68856C10.9949 6.27279 10.7425 5.89512 10.424 5.57729C10.1056 5.25945 9.7274 5.0077 9.31129 4.83654C8.89519 4.66537 8.44936 4.57816 7.99943 4.57992ZM7.99943 10.2199C7.56036 10.2199 7.13114 10.0897 6.76606 9.84578C6.40099 9.60184 6.11644 9.25513 5.94842 8.84948C5.78039 8.44382 5.73643 7.99746 5.82209 7.56682C5.90775 7.13618 6.11918 6.74061 6.42965 6.43014C6.74013 6.11967 7.13569 5.90823 7.56633 5.82258C7.99697 5.73692 8.44334 5.78088 8.84899 5.94891C9.25464 6.11693 9.60136 6.40147 9.84529 6.76655C10.0892 7.13163 10.2194 7.56084 10.2194 7.99992C10.2194 8.29145 10.162 8.58013 10.0504 8.84948C9.93888 9.11882 9.77535 9.36355 9.56921 9.5697C9.36306 9.77584 9.11833 9.93937 8.84899 10.0509C8.57964 10.1625 8.29096 10.2199 7.99943 10.2199Z" fill="white"/>
</svg>
