<svg width="16" height="16" viewBox="0 0 16 16" fill="none" xmlns="http://www.w3.org/2000/svg">
<path d="M8.00008 1.33325C6.58559 1.33325 5.22904 1.89516 4.22884 2.89535C3.22865 3.89554 2.66675 5.2521 2.66675 6.66659C2.66675 10.2666 7.36675 14.3333 7.56675 14.5066C7.6875 14.6099 7.84118 14.6666 8.00008 14.6666C8.15898 14.6666 8.31266 14.6099 8.43341 14.5066C8.66675 14.3333 13.3334 10.2666 13.3334 6.66659C13.3334 5.2521 12.7715 3.89554 11.7713 2.89535C10.7711 1.89516 9.41457 1.33325 8.00008 1.33325ZM8.00008 13.0999C6.58008 11.7666 4.00008 8.89325 4.00008 6.66659C4.00008 5.60572 4.42151 4.5883 5.17165 3.83816C5.9218 3.08801 6.93921 2.66659 8.00008 2.66659C9.06095 2.66659 10.0784 3.08801 10.8285 3.83816C11.5787 4.5883 12.0001 5.60572 12.0001 6.66659C12.0001 8.89325 9.42008 11.7733 8.00008 13.0999ZM8.00008 3.99992C7.47266 3.99992 6.95709 4.15632 6.51856 4.44933C6.08003 4.74235 5.73824 5.15883 5.5364 5.6461C5.33457 6.13337 5.28176 6.66954 5.38465 7.18683C5.48755 7.70411 5.74152 8.17926 6.11446 8.5522C6.4874 8.92514 6.96256 9.17912 7.47984 9.28201C7.99712 9.38491 8.5333 9.3321 9.02057 9.13027C9.50784 8.92843 9.92431 8.58664 10.2173 8.14811C10.5103 7.70958 10.6667 7.194 10.6667 6.66659C10.6667 5.95934 10.3858 5.28106 9.8857 4.78097C9.3856 4.28087 8.70732 3.99992 8.00008 3.99992ZM8.00008 7.99992C7.73637 7.99992 7.47859 7.92172 7.25932 7.77521C7.04005 7.6287 6.86916 7.42046 6.76824 7.17683C6.66732 6.9332 6.64092 6.66511 6.69237 6.40647C6.74381 6.14782 6.8708 5.91025 7.05727 5.72378C7.24374 5.53731 7.48132 5.41032 7.73996 5.35887C7.9986 5.30743 8.26669 5.33383 8.51032 5.43475C8.75396 5.53566 8.9622 5.70656 9.10871 5.92583C9.25521 6.14509 9.33341 6.40288 9.33341 6.66659C9.33341 7.02021 9.19294 7.35935 8.94289 7.6094C8.69284 7.85944 8.3537 7.99992 8.00008 7.99992Z" fill="black"/>
</svg>
