<svg width="16" height="16" viewBox="0 0 16 16" fill="none" xmlns="http://www.w3.org/2000/svg">
<path d="M14.8432 1.64268C14.6534 1.48539 14.4243 1.3823 14.1804 1.34438C13.9364 1.30647 13.6867 1.33515 13.4578 1.42738L1.51052 6.23217C1.25502 6.33689 1.03753 6.51652 0.886921 6.74724C0.73631 6.97796 0.6597 7.24884 0.667258 7.52395C0.674816 7.79905 0.766186 8.06535 0.92924 8.28752C1.09229 8.50969 1.31932 8.6772 1.58019 8.76784L3.99686 9.60506L5.34386 14.0421C5.36216 14.1014 5.38873 14.1578 5.42278 14.2098C5.42794 14.2177 5.43523 14.2237 5.44072 14.2314C5.48006 14.2861 5.5276 14.3344 5.58168 14.3747C5.59706 14.3864 5.61178 14.3973 5.62822 14.4077C5.69151 14.4495 5.7616 14.4801 5.83538 14.4981L5.84327 14.4987L5.84774 14.5006C5.8921 14.5096 5.93724 14.5142 5.98251 14.5142C5.98686 14.5142 5.99073 14.5122 5.99504 14.5121C6.06335 14.5109 6.13106 14.4992 6.19577 14.4774C6.21082 14.4722 6.22372 14.4637 6.23833 14.4575C6.28658 14.4376 6.3323 14.4121 6.37452 14.3815C6.40834 14.3531 6.44216 14.3247 6.476 14.2963L8.27744 12.3152L10.9643 14.3884C11.2008 14.5719 11.492 14.6716 11.7918 14.6718C12.1059 14.6714 12.4103 14.5635 12.654 14.3661C12.8977 14.1686 13.0659 13.8938 13.1303 13.5875L15.3054 2.95137C15.3547 2.71199 15.3378 2.46376 15.2563 2.23324C15.1749 2.00272 15.0321 1.79859 14.8432 1.64268ZM6.24686 9.81647C6.15442 9.90819 6.09123 10.0251 6.06522 10.1524L5.85888 11.1512L5.33617 9.42918L8.04634 8.02338L6.24686 9.81647ZM11.7814 13.3385L8.60623 10.8884C8.47339 10.7862 8.30675 10.7375 8.13952 10.7522C7.97229 10.7669 7.81675 10.8438 7.70388 10.9676L7.12694 11.6019L7.33084 10.6148L12.0528 5.91114C12.1655 5.79902 12.2342 5.6504 12.2464 5.49219C12.2586 5.33399 12.2135 5.17667 12.1193 5.04872C12.0251 4.92078 11.888 4.83067 11.7329 4.79473C11.5777 4.75878 11.4148 4.77938 11.2735 4.85278L4.49669 8.36746L2.01378 7.46239L13.9994 2.68612L11.7814 13.3385Z" fill="white"/>
</svg>
