<svg width="14" height="14" viewBox="0 0 14 14" fill="none" xmlns="http://www.w3.org/2000/svg">
<path d="M4.33324 6.33334C4.20139 6.33334 4.0725 6.37244 3.96286 6.4457C3.85323 6.51895 3.76778 6.62307 3.71732 6.74489C3.66687 6.86671 3.65366 7.00075 3.67939 7.13007C3.70511 7.25939 3.76861 7.37818 3.86184 7.47141C3.95508 7.56465 4.07386 7.62814 4.20318 7.65387C4.33251 7.67959 4.46655 7.66639 4.58837 7.61593C4.71019 7.56547 4.8143 7.48002 4.88756 7.37039C4.96081 7.26076 4.99991 7.13186 4.99991 7.00001C4.99991 6.8232 4.92967 6.65363 4.80465 6.52861C4.67963 6.40358 4.51006 6.33334 4.33324 6.33334ZM6.99991 6.33334C6.86806 6.33334 6.73916 6.37244 6.62953 6.4457C6.5199 6.51895 6.43445 6.62307 6.38399 6.74489C6.33353 6.86671 6.32033 7.00075 6.34606 7.13007C6.37178 7.25939 6.43527 7.37818 6.52851 7.47141C6.62174 7.56465 6.74053 7.62814 6.86985 7.65387C6.99917 7.67959 7.13322 7.66639 7.25503 7.61593C7.37685 7.56547 7.48097 7.48002 7.55423 7.37039C7.62748 7.26076 7.66658 7.13186 7.66658 7.00001C7.66658 6.8232 7.59634 6.65363 7.47132 6.52861C7.34629 6.40358 7.17672 6.33334 6.99991 6.33334ZM9.66658 6.33334C9.53473 6.33334 9.40583 6.37244 9.2962 6.4457C9.18657 6.51895 9.10112 6.62307 9.05066 6.74489C9.0002 6.86671 8.987 7.00075 9.01272 7.13007C9.03845 7.25939 9.10194 7.37818 9.19518 7.47141C9.28841 7.56465 9.4072 7.62814 9.53652 7.65387C9.66584 7.67959 9.79988 7.66639 9.9217 7.61593C10.0435 7.56547 10.1476 7.48002 10.2209 7.37039C10.2941 7.26076 10.3332 7.13186 10.3332 7.00001C10.3332 6.8232 10.263 6.65363 10.138 6.52861C10.013 6.40358 9.84339 6.33334 9.66658 6.33334ZM6.99991 0.333344C6.12443 0.333344 5.25753 0.505782 4.44869 0.840813C3.63985 1.17584 2.90492 1.66691 2.28587 2.28596C1.03562 3.53621 0.333244 5.2319 0.333244 7.00001C0.327416 8.53943 0.860439 10.0324 1.83991 11.22L0.506577 12.5533C0.414072 12.6471 0.351408 12.7661 0.326492 12.8955C0.301576 13.0248 0.315524 13.1586 0.366577 13.28C0.421949 13.4 0.511713 13.5008 0.624475 13.5696C0.737237 13.6384 0.867911 13.6722 0.999911 13.6667H6.99991C8.76802 13.6667 10.4637 12.9643 11.714 11.7141C12.9642 10.4638 13.6666 8.76812 13.6666 7.00001C13.6666 5.2319 12.9642 3.53621 11.714 2.28596C10.4637 1.03572 8.76802 0.333344 6.99991 0.333344ZM6.99991 12.3333H2.60658L3.22658 11.7133C3.28957 11.6516 3.33968 11.578 3.37401 11.4967C3.40835 11.4155 3.42621 11.3282 3.42658 11.24C3.42407 11.0642 3.35219 10.8964 3.22658 10.7733C2.35364 9.90137 1.81003 8.7537 1.68837 7.52587C1.56672 6.29804 1.87454 5.06601 2.5594 4.03969C3.24425 3.01337 4.26377 2.25625 5.44426 1.89733C6.62474 1.5384 7.89315 1.59988 9.03339 2.07129C10.1736 2.54269 11.1151 3.39486 11.6975 4.4826C12.2799 5.57035 12.4672 6.82637 12.2273 8.03668C11.9875 9.24699 11.3355 10.3367 10.3823 11.1202C9.42909 11.9036 8.23375 12.3324 6.99991 12.3333Z" fill="#02B6E0"/>
</svg>
